name new_emg_signals
nRows=90
nColumns=7
 
endheader
time	RGLTMED	RRF	RADDLONG	RBF	RTA	RGM
0.0	0.1748656491497842	0.3254253405667103	0.0109843721151515	0.0392063599875103	0.1185943565409074	0.0075082664969658
0.009999999999999787	0.1481664892815077	0.306761758840515	0.0219282494560158	0.0370095911353299	0.1052856921208092	0.0017679263610462
0.02000000000000135	0.1215658307959605	0.2880618403900506	0.0328931093381802	0.0347073822340987	0.09196523651837	0.0039948659013714
0.030000000000001137	0.0950790009210767	0.2693330144961058	0.0438732458825533	0.0322984781844929	0.078639947922001	0.0097766143586918
0.040000000000000924	0.0687211206667912	0.2505826355942985	0.0548629706942616	0.0297816993156894	0.0653167980338126	0.0155737705028141
0.049999999999998934	0.0425070810899248	0.2318179737144443	0.0658566217992326	0.0271559444977305	0.0520027650247476	0.0213827363536779
0.05999999999999872	0.0164515201769698	0.2130462053859619	0.0768485724605269	0.0244201942303197	0.038704826590256	0.0271998676189327
0.06999999999999851	0.0094311995738693	0.1942744050472561	0.0878332398447799	0.0215735137030463	0.0254299531205982	0.0330214769042452
0.0799999999999983	0.0351270127928946	0.1755095369913052	0.0988050935127756	0.0186150558218124	0.0121851009986776	0.0388438369699364
0.0899999999999963	0.0606221720261446	0.1567584478737054	0.1097586637107868	0.015544064195984	0.0010227939628109	0.0446631840298373
0.09999999999999609	0.0859032675987785	0.1380278598048925	0.1206885494410121	0.0123598760805699	0.0141868229343476	0.0504757210884697
0.10999999999999588	0.11095724648943	0.1193243640444431	0.1315894262905604	0.0090619252675174	0.0273001103233991	0.0562776213129724
0.11999999999999744	0.1357714301564177	0.1006544153125013	0.1424560539996612	0.0056497449200248	0.0403558198611459	0.0620650314364317
0.12999999999999723	0.1603335312633167	0.0820243267299723	0.1532832837512526	0.0021229703435922	0.0533471605154985	0.0678340751894644
0.13999999999999702	0.1846316692579769	0.0634402653944363	0.1640660651659356	0.0015186583125969	0.0662673922250431	0.0735808567569758
0.1499999999999968	0.2086543847670386	0.0449082485936758	0.1747994529889888	0.0052752934305029	0.0791098314497189	0.0793014642572056
0.1599999999999966	0.2323906527759637	0.0264341406533551	0.1854786134577479	0.0091469773808825	0.0918678565350352	0.0849919732404309
0.16999999999999638	0.255829894572908	0.0080236504106621	0.1960988303398534	0.0131336400704923	0.1045349128875741	0.0906484502050836
0.17999999999999616	0.2789619884421873	0.0103176706990587	0.2066555106344308	0.0172350965856368	0.1171045179605025	0.0962669561295905
0.18999999999999595	0.3017772791001482	0.0285844299594995	0.2171441899303569	0.0214510449389371	0.1295702660488489	0.1018435500187684
0.1999999999999975	0.3242665858723779	0.0467713941145065	0.2275605374182218	0.0257810639262665	0.141925832895219	0.1073742924640922
0.2099999999999973	0.3464212096162745	0.0648734895555898	0.2379003605542697	0.0302246111008303	0.154164980107392	0.1128552492175725
0.2199999999999971	0.368232938397782	0.0828858019797362	0.248159609376321	0.0347810208713594	0.1662815593899696	0.118282494779374
0.2299999999999951	0.3896940519355955	0.1008035755429458	0.2583343804727188	0.0394495027313641	0.1782695165930758	0.1236521159997685
0.2399999999999931	0.4107973248324152	0.1186222115356852	0.2684209206064824	0.0442291396263399	0.1901228955819306	0.1289602156963656
0.24999999999999467	0.4315360286172641	0.1363372666074861	0.2784156299978274	0.0491188864657486	0.2018358419317411	0.1342029162879097
0.2599999999999927	0.451903932627395	0.153944450568745	0.2883150652686702	0.0541175687865136	0.2134026064527541	0.1393763634460371
0.26999999999999424	0.4718953037615884	0.1714396237984498	0.29811594205284	0.0592238815746469	0.2248175485506558	0.1444767297664026
0.27999999999999226	0.491504905139963	0.1888187942870015	0.3078151372752099	0.0644363882514882	0.2360751394279029	0.1495002184604416
0.2899999999999938	0.5107279937094015	0.2060781143431694	0.3174096911029556	0.0697535198308774	0.2471699651320411	0.1544430670689704
0.29999999999999183	0.5295603168355633	0.2232138769938304	0.3268968085715429	0.0751735742534368	0.2580967294576035	0.1593015511987305
0.3099999999999934	0.5479981079238999	0.2402225121047723	0.3362738608882125	0.0806947159039751	0.2688502567087715	0.1640719882829486
0.3199999999999914	0.5660380811118997	0.257100582250161	0.3455383864151333	0.0863149753178763	0.2794254943305937	0.1687507413668243
0.32999999999999297	0.5836774250744399	0.2738447783579055	0.3546880913344117	0.0920322490821724	0.2898175154170169	0.1733342229185122
0.339999999999991	0.6009137959841597	0.2904519151574666	0.3637208499969983	0.0978442999368076	0.3000215211041736	0.1778188986656901
0.34999999999999254	0.6177453096698516	0.3069189264565763	0.3726347049580157	0.1037487570813937	0.310032842857313	0.1822012914572336
0.35999999999999055	0.6341705330178319	0.3232428602731557	0.381427866702824	0.1097431166925016	0.3198469446595683	0.1864779851489688
0.3699999999999921	0.6501884746633412	0.3394208738483444	0.3900987130697536	0.1158247426562758	0.3294594251105321	0.1906456285119157
0.3799999999999901	0.6657985750209806	0.3554502285664067	0.3986457883775727	0.1219908675207984	0.3388660194423901	0.1947009391609667
0.3899999999999917	0.6810006957031716	0.371328284806692	0.407067802266988	0.1282385936722665	0.3480626014611142	0.1986407075014376
0.3999999999999897	0.6957951083755877	0.3870524967526318	0.415363628266165	0.1345648947385945	0.3570451854198219	0.2024618006904581
0.40999999999999126	0.7101824830974849	0.4026204071824482	0.4235323020904212	0.140966617223604	0.3658099278308523	0.206161166609767
0.41999999999998927	0.7241638761942861	0.4180296422659583	0.4315730196861824	0.1474404823744767	0.3743531292224679	0.2097358378460604
0.42999999999999083	0.7377407177097984	0.4332779063912196	0.4394851350293725	0.1539830882846429	0.3826712358455105	0.2131829356746454
0.43999999999998884	0.7509147984843771	0.4483629770440241	0.4472681576890587	0.1605909122337283	0.390760841334837	0.2164996740416746
0.4499999999999904	0.763688256904858	0.4632826997619277	0.4549217501678877	0.1672603132656491	0.3986186883297771	0.2196833635397803
0.4599999999999884	0.7760635653701974	0.4780349831832626	0.4624457250318559	0.1739875350053333	0.4062416700571786	0.2227314153714445
0.46999999999999	0.7880435165155958	0.492617794210019	0.4698400418423786	0.1807687087139569	0.4136268318798274	0.2256413452940293
0.479999999999988	0.799631209236187	0.5070291533019282	0.4771048039038609	0.1875998565819464	0.4207713728122612	0.2284107775399107
0.48999999999998956	0.8108300345504029	0.5212671299173137	0.4842402548404746	0.1944768952583249	0.4276726470051494	0.2310374487046496
0.49999999999998757	0.8216436613414545	0.5353298381149252	0.491246775015944	0.2013956396143101	0.434328165198555	0.2335192115955092
0.5099999999999891	0.8320760220142709	0.5492154323292886	0.4981248778103841	0.2083518067383366	0.4407355961435573	0.2358540390319875
0.5199999999999871	0.8421312981024166	0.5629221033308321	0.5048752057679099	0.2153410201589227	0.4468927679909539	0.2380400275893354
0.5299999999999887	0.851813905858343	0.5764480743805208	0.5114985266285413	0.2223588142910361	0.4527976696449784	0.2400754012753048
0.5399999999999867	0.8611284818578189	0.5897915975876304	0.5179957292573709	0.229400639100794	0.4584484520792638	0.2419585151296714
0.5499999999999883	0.8700798686492981	0.6029509504778426	0.5243678194834474	0.2364618649825366	0.4638434296119006	0.2436878587353156
0.5599999999999863	0.8786731004793611	0.6159244327783712	0.5306159158607647	0.2435377878414538	0.46898108113671	0.2452620596289302
0.5699999999999878	0.8869133891267011	0.6287103634261292	0.5367412453640069	0.2506236343740926	0.4738600513087317	0.2466798865987174
0.5799999999999859	0.8948061098780093	0.6413070778046885	0.5427451390324345	0.2577145675382218	0.4784791516830412	0.2479402528558348
0.5899999999999874	0.902356787678914	0.653712925215735	0.5486290275756853	0.2648056922026843	0.4828373618070213	0.249042219065944
0.5999999999999854	0.9095710834916584	0.6659262665904986	0.5543944369552783	0.2718920609670819	0.4869338302668206	0.2499849962270993
0.609999999999987	0.9164547808898276	0.6779454724466634	0.5600429839542856	0.2789686801403623	0.4907678756888725	0.2507679483803806
0.619999999999985	0.923013772917934	0.6897689210957358	0.5655763717464305	0.2860305158666413	0.4943389876969511	0.251390595140215
0.6299999999999866	0.9292540492426312	0.7013949971054785	0.57099638547412	0.2930725003858161	0.4976468278244504	0.251852614031929
0.6399999999999846	0.9351816836202532	0.7128220900218822	0.576304887843737	0.3000895384157271	0.5006912303805021	0.2521538426246097
0.6499999999999861	0.9408028217049632	0.7240485933557695	0.5815038147452988	0.3070765136417425	0.5034722032674589	0.2522942804478748
0.6599999999999842	0.9461236692203132	0.7350729038401286	0.5865951709029911	0.3140282952987251	0.5059899287462455	0.2522740906819276
0.6699999999999857	0.9511504805160694	0.7458934209648174	0.5915810255621161	0.3209397448293715	0.50824476414514	0.2520936016120341
0.6799999999999837	0.9558895475301284	0.7565085467950121	0.5964635082171903	0.327805722601882	0.5102372425066181	0.2517533078417047
0.6899999999999853	0.9603471891731732	0.7669166860783578	0.6012448043859565	0.3346210946687998	0.5119680731658898	0.251253871263169
0.6999999999999833	0.9645297411509696	0.7771162466444695	0.6059271514335577	0.3413807395477093	0.5134381422536339	0.2505961217880438
0.7099999999999849	0.9684435462364752	0.7871056400986541	0.6105128344514985	0.3480795550033043	0.5146485131141831	0.2497810578442541
0.7199999999999829	0.9720949450006215	0.796883282810719	0.6150041821956944	0.3547124648092071	0.5156004266291908	0.248809846647097
0.7299999999999844	0.9754902670075842	0.8064475971982527	0.6194035630881297	0.3612744254668829	0.5162953014357642	0.2476838242532147
0.7399999999999824	0.9786358224780084	0.8157970133025534	0.6237133812864764	0.3677604328580255	0.5167347340271391	0.2464044954066861
0.749999999999984	0.9815378944216628	0.8249299706532455	0.6279360728261167	0.3741655288058129	0.5169204987231051	0.244973533186629
0.759999999999982	0.9842027312395633	0.8338449204157111	0.6320741018380349	0.3804848075194277	0.5168545474966127	0.2433927784655422
0.7699999999999836	0.9866365397942998	0.8425403278132467	0.6361299568455505	0.3867134218951642	0.5165390096425536	0.2416642391871749
0.7799999999999816	0.988845478946018	0.8510146748135382	0.6401061471420346	0.3928465896464445	0.5159761912747439	0.2397900894720155
0.7899999999999832	0.9908356535499044	0.8592664630667917	0.6440051992513836	0.3988795992342341	0.5151685746376731	0.2377726685577965
0.7999999999999812	0.9926131089087618	0.8672942170808562	0.6478296534732426	0.4048078155688358	0.5141188172206179	0.2356144795818294
0.8099999999999827	0.9941838256723512	0.8750964876170892	0.6515820605147881	0.4106266854539012	0.5128297506636045	0.233318188211572
0.8199999999999807	0.9955537151729528	0.8826718552897311	0.6552649782099388	0.4163317427441912	0.5113043794476357	0.2308866211295119
0.8299999999999823	0.9967286151846716	0.8900189343510111	0.6588809683251009	0.4219186131914319	0.509545879365213	0.228322764378072
0.8399999999999803	0.9977142860937064	0.8971363766442486	0.662432593448539	0.4273830189591689	0.5075575957708814	0.2256297615698651
0.8499999999999819	0.9985164074667632	0.9040228757074572	0.6659224139584081	0.432720782797701	0.5053430416147706	0.2228109119682212
0.8599999999999799	0.9991405750048664	0.9106771710109064	0.6693529850627995	0.4379278318813563	0.502905895264515	0.2198696684425326
0.8699999999999815	0.9995922978699808	0.917098052312336	0.6727268539044479	0.4430002013194437	0.5002499981224557	0.2168096353025981
0.8799999999999795	0.999876996371464	0.9232843641137646	0.6760465567230741	0.4479340373579681	0.4973793520458214	0.2136345660157594
0.889999999999981	1.0	0.9292350102035738	0.6793146160704444	0.4527256002923986	0.4942981165778438	0.2103483608103002
